<?xml version="1.0" encoding="UTF-8" standalone="no"?><!DOCTYPE svg PUBLIC "-//W3C//DTD SVG 1.1//EN" "http://www.w3.org/Graphics/SVG/1.1/DTD/svg11.dtd"><svg width="100%" height="100%" viewBox="0 0 1080 1080" version="1.1" xmlns="http://www.w3.org/2000/svg" xmlns:xlink="http://www.w3.org/1999/xlink" xml:space="preserve" xmlns:serif="http://www.serif.com/" style="fill-rule:evenodd;clip-rule:evenodd;stroke-linejoin:round;stroke-miterlimit:2;"><path d="M779.292,1080l-478.584,0c-165.177,0 -300.708,-135.531 -300.708,-300.708l0,-478.584c0,-165.177 135.531,-300.708 300.708,-300.708l478.584,0c165.177,0 300.708,135.531 300.708,300.708l0,478.584c0,165.177 -135.531,300.708 -300.708,300.708Zm-478.584,-1012.23c-127.062,-0 -232.942,105.88 -232.942,232.942l-0,478.584c-0,127.062 105.88,232.942 232.942,232.942l478.584,0c127.062,0 232.942,-105.88 232.942,-232.942l0,-478.584c0,-127.062 -105.88,-232.942 -232.942,-232.942l-478.584,-0Z" style="fill:#fff;"/><path d="M540,726.354c-101.646,0 -186.354,-84.708 -186.354,-186.354c-0,-101.646 84.708,-186.354 186.354,-186.354c101.646,-0 186.354,84.708 186.354,186.354c0,101.646 -84.708,186.354 -186.354,186.354Zm0,-304.943c-65.646,0 -118.589,52.943 -118.589,118.589c0,65.646 52.943,118.589 118.589,118.589c65.646,-0 118.589,-52.943 118.589,-118.589c-0,-65.646 -52.943,-118.589 -118.589,-118.589Z" style="fill:#fff;"/><path d="M540,844.943c-167.292,-0 -304.943,-137.651 -304.943,-304.943c0,-167.292 137.651,-304.943 304.943,-304.943c167.292,0 304.943,137.651 304.943,304.943c-0,167.292 -137.651,304.943 -304.943,304.943Zm0,-542.12c-131.292,-0 -237.177,105.885 -237.177,237.177c-0,131.292 105.885,237.177 237.177,237.177c131.292,0 237.177,-105.885 237.177,-237.177c0,-131.292 -105.885,-237.177 -237.177,-237.177Z" style="fill:#fff;"/><path d="M290.12,249.88l-74.12,0c-19.057,0 -33.88,-14.823 -33.88,-33.88c-0,-19.057 14.823,-33.88 33.88,-33.88l74.12,-0c19.057,-0 33.88,14.823 33.88,33.88c0,19.057 -14.823,33.88 -33.88,33.88Z" style="fill:#fff;"/></svg>